<svg xmlns="http://www.w3.org/2000/svg" viewBox="0 0 818 269" width="243px" height="80px">
  <g>
    <g>
      <path d="M360.2373,81.1382v-46.2h7.92v46.2Z" style="fill: #fff"/>
      <path d="M396.6211,81.1382V61.8q0-7.8537-6.2695-7.854-6.8658,0-6.8643,7.7217v19.47h-7.7217V47.4121h7.7217V50.58a10.9945,10.9945,0,0,1,8.91-3.96,11.7222,11.7222,0,0,1,8.6132,3.3q3.3311,3.301,3.3331,10.4937V81.1382Z" style="fill: #fff"/>
      <path d="M421.0146,81.93q-7.8544,0-7.8535-8.646V54.144h-5.0156V47.4121h5.0156v-10.23l7.7217-3.6958V47.4121h7.7881V54.144h-7.7881V71.7661q0,3.2345,2.8379,3.2339a10.76,10.76,0,0,0,5.28-1.5176l-.9239,6.93A15.0948,15.0948,0,0,1,421.0146,81.93Z" style="fill: #fff"/>
      <path d="M447.6514,81.93q-7.1939,0-11.3848-4.7188t-4.1914-12.9692q0-8.1826,4.2246-12.9028,4.2218-4.7184,11.3516-4.7193a14.5353,14.5353,0,0,1,10.5927,4.0259q4.125,4.0269,4.125,11.814a37.8214,37.8214,0,0,1-.2636,4.7524H439.7314a8.2516,8.2516,0,0,0,2.4747,5.7417,7.6026,7.6026,0,0,0,5.4453,2.1782,8.4647,8.4647,0,0,0,7.1279-3.498l4.8838,5.0161Q455.2407,81.9312,447.6514,81.93Zm-7.8535-21.12h14.916a8.1121,8.1121,0,0,0-2.2442-5.5108,6.74,6.74,0,0,0-4.8183-1.8813,8.1374,8.1374,0,0,0-5.4453,1.8154A7.6435,7.6435,0,0,0,439.7979,60.81Z" style="fill: #fff"/>
      <path d="M467.6943,81.1382V47.4121h7.7217V50.91a7.1016,7.1016,0,0,1,6.93-4.29,9.3723,9.3723,0,0,1,6.27,2.31l-1.1221,7.062A9.6691,9.6691,0,0,0,481.752,54.21a6.1127,6.1127,0,0,0-4.4883,1.8481q-1.8472,1.8486-1.8477,6.2041v18.876Z" style="fill: #fff"/>
      <path d="M513.3,81.1382V61.8q0-7.8537-6.2695-7.854-6.8658,0-6.8643,7.7217v19.47h-7.7217V47.4121h7.7217V50.58a10.9945,10.9945,0,0,1,8.91-3.96,11.7226,11.7226,0,0,1,8.6133,3.3q3.3311,3.301,3.333,10.4937V81.1382Z" style="fill: #fff"/>
      <path d="M547.1768,81.1382V78.4321A11.881,11.881,0,0,1,538.2,81.93a12.9908,12.9908,0,0,1-8.8106-2.937q-3.4-2.9364-3.3994-8.2832,0-5.4771,3.8614-8.316a15.3374,15.3374,0,0,1,9.3388-2.8378,16.133,16.133,0,0,1,7.9864,1.7822V59.5562q0-3.2329-1.6172-4.6861a7.2932,7.2932,0,0,0-4.9834-1.4521,17.179,17.179,0,0,0-10.0313,3.1684l-2.376-6.27A23.0416,23.0416,0,0,1,541.3682,46.62a22.5312,22.5312,0,0,1,4.6533.4292,14.168,14.168,0,0,1,4.1582,1.6831,8.234,8.234,0,0,1,3.333,3.96A16.7718,16.7718,0,0,1,554.7,59.4243V81.1382Zm-7.5245-6.0059a10.04,10.04,0,0,0,7.5245-3.2344V67.542a15.4693,15.4693,0,0,0-6.7325-1.3858,9.85,9.85,0,0,0-5.0156,1.1221,3.71,3.71,0,0,0-1.9141,3.4317,3.8276,3.8276,0,0,0,1.584,3.2343A7.4876,7.4876,0,0,0,539.6523,75.1323Z" style="fill: #fff"/>
      <path d="M571.3,81.93q-7.8545,0-7.8535-8.646V54.144h-5.0156V47.4121h5.0156v-10.23l7.7217-3.6958V47.4121h7.7881V54.144H571.168V71.7661q0,3.2345,2.8379,3.2339a10.76,10.76,0,0,0,5.28-1.5176l-.9238,6.93A15.0948,15.0948,0,0,1,571.3,81.93Z" style="fill: #fff"/>
      <path d="M591.0586,41.439a4.342,4.342,0,0,1-3.2334,1.353,4.6186,4.6186,0,0,1-4.62-4.62,4.3444,4.3444,0,0,1,1.3525-3.2344,4.51,4.51,0,0,1,3.2676-1.32,4.5077,4.5077,0,0,1,4.5537,4.5542A4.5056,4.5056,0,0,1,591.0586,41.439Zm-7.1279,39.6992V47.4121h7.7226V81.1382Z" style="fill: #fff"/>
      <path d="M612.6611,81.93q-7.1278,0-11.2861-4.6861t-4.1582-12.936q0-8.2492,4.1582-12.9687T612.6611,46.62q7.128,0,11.3194,4.7193,4.1893,4.719,4.19,12.9687,0,8.2515-4.1582,12.936Q619.8555,81.931,612.6611,81.93Zm0-7.3921a6.8039,6.8039,0,0,0,5.709-2.7061q2.0787-2.7055,2.0791-7.5239a12.39,12.39,0,0,0-2.0791-7.59,6.7462,6.7462,0,0,0-5.709-2.772,6.6781,6.6781,0,0,0-5.61,2.8047,12.2758,12.2758,0,0,0-2.1113,7.5571,12.1193,12.1193,0,0,0,2.0781,7.4912A6.71,6.71,0,0,0,612.6611,74.5381Z" style="fill: #fff"/>
      <path d="M654.6484,81.1382V61.8q0-7.8537-6.2695-7.854-6.8657,0-6.8643,7.7217v19.47H633.793V47.4121h7.7216V50.58a10.9947,10.9947,0,0,1,8.91-3.96,11.7226,11.7226,0,0,1,8.6133,3.3q3.3311,3.301,3.333,10.4937V81.1382Z" style="fill: #fff"/>
      <path d="M688.5264,81.1382V78.4321A11.881,11.881,0,0,1,679.55,81.93a12.99,12.99,0,0,1-8.8105-2.937q-3.4-2.9364-3.3995-8.2832,0-5.4771,3.8614-8.316a15.3374,15.3374,0,0,1,9.3388-2.8378,16.133,16.133,0,0,1,7.9864,1.7822V59.5562q0-3.2329-1.6172-4.6861a7.2932,7.2932,0,0,0-4.9834-1.4521,17.179,17.179,0,0,0-10.0313,3.1684l-2.3759-6.27A23.0411,23.0411,0,0,1,682.7178,46.62a22.5312,22.5312,0,0,1,4.6533.4292,14.168,14.168,0,0,1,4.1582,1.6831,8.234,8.234,0,0,1,3.333,3.96,16.7718,16.7718,0,0,1,1.1875,6.7319V81.1382Zm-7.5244-6.0059a10.04,10.04,0,0,0,7.5244-3.2344V67.542a15.4693,15.4693,0,0,0-6.7325-1.3858,9.85,9.85,0,0,0-5.0156,1.1221,3.71,3.71,0,0,0-1.914,3.4317,3.8275,3.8275,0,0,0,1.5839,3.2343A7.4878,7.4878,0,0,0,681.002,75.1323Z" style="fill: #fff"/>
      <path d="M703.0264,81.1382V37.1162l7.7216-3.63V81.1382Z" style="fill: #fff"/>
      <path d="M359.9072,147.1382v-46.2h7.92v38.61h22.44v7.59Z" style="fill: #fff"/>
      <path d="M414.7393,147.1382v-2.7061a11.881,11.881,0,0,1-8.9766,3.4981,12.9908,12.9908,0,0,1-8.8106-2.937q-3.4-2.9364-3.3994-8.2832,0-5.4771,3.8614-8.316a15.3374,15.3374,0,0,1,9.3388-2.8378,16.133,16.133,0,0,1,7.9864,1.7822v-1.7822q0-3.233-1.6172-4.6861a7.2932,7.2932,0,0,0-4.9834-1.4521,17.179,17.179,0,0,0-10.0313,3.1684l-2.376-6.27a23.0416,23.0416,0,0,1,13.1993-3.6963,22.5312,22.5312,0,0,1,4.6533.4292,14.168,14.168,0,0,1,4.1582,1.6831,8.234,8.234,0,0,1,3.333,3.96,16.7718,16.7718,0,0,1,1.1875,6.7319v21.7139Zm-7.5245-6.0059a10.04,10.04,0,0,0,7.5245-3.2344V133.542a15.4693,15.4693,0,0,0-6.7325-1.3858,9.85,9.85,0,0,0-5.0156,1.1221,3.71,3.71,0,0,0-1.9141,3.4317,3.8276,3.8276,0,0,0,1.584,3.2343A7.4876,7.4876,0,0,0,407.2148,141.1323Z" style="fill: #fff"/>
      <path d="M444.2666,147.93a9.0439,9.0439,0,0,1-7.458-3.3662v2.5742h-7.7217V102.9844l7.7217-3.4981V115.92a9.5062,9.5062,0,0,1,7.59-3.3,12.4213,12.4213,0,0,1,10.1309,4.752q3.8613,4.7519,3.8613,12.87,0,8.4492-3.7617,13.0679A12.6341,12.6341,0,0,1,444.2666,147.93Zm-.9238-7.3921a6.1966,6.1966,0,0,0,5.4453-2.7388,13.1936,13.1936,0,0,0,1.8808-7.5571q0-5.0149-1.914-7.6558a6.2931,6.2931,0,0,0-5.4121-2.64,7.3073,7.3073,0,0,0-6.5342,3.3v14.0581A7.2532,7.2532,0,0,0,443.3428,140.5381Z" style="fill: #fff"/>
      <path d="M477.9258,147.93q-7.128,0-11.2862-4.6861t-4.1582-12.936q0-8.2492,4.1582-12.9687t11.2862-4.7193q7.1279,0,11.3193,4.7193,4.19,4.719,4.19,12.9687,0,8.2515-4.1582,12.936Q485.12,147.931,477.9258,147.93Zm0-7.3921a6.8042,6.8042,0,0,0,5.709-2.7061q2.0786-2.7055,2.0791-7.5239a12.39,12.39,0,0,0-2.0791-7.59,6.7465,6.7465,0,0,0-5.709-2.772,6.6782,6.6782,0,0,0-5.61,2.8047,12.2758,12.2758,0,0,0-2.1113,7.5571,12.12,12.12,0,0,0,2.0781,7.4912A6.71,6.71,0,0,0,477.9258,140.5381Z" style="fill: #fff"/>
      <path d="M519.5312,147.1382v-3.2339a10.6151,10.6151,0,0,1-8.8437,4.0259,11.7647,11.7647,0,0,1-8.6455-3.333q-3.3661-3.3318-3.3662-10.5269V113.4121h7.7217v19.272q0,7.8552,6.3359,7.854,6.7968,0,6.7978-7.7217V113.4121h7.7227v33.7261Z" style="fill: #fff"/>
      <path d="M534.4336,147.1382V113.4121h7.7217V116.91a7.1016,7.1016,0,0,1,6.93-4.29,9.3724,9.3724,0,0,1,6.27,2.31l-1.1221,7.062a9.6694,9.6694,0,0,0-5.7422-1.7822,6.1128,6.1128,0,0,0-4.4883,1.8481q-1.8471,1.8486-1.8476,6.2041v18.876Z" style="fill: #fff"/>
      <path d="M378.5186,213.93a20.9671,20.9671,0,0,1-7.7881-1.3863,16.2585,16.2585,0,0,1-5.7744-3.729,21.55,21.55,0,0,1-3.8282-5.4448,25.2953,25.2953,0,0,1-2.2109-6.435,36.356,36.356,0,0,1,0-13.794,25.3325,25.3325,0,0,1,2.2109-6.435,21.6047,21.6047,0,0,1,3.8282-5.4449,16.2734,16.2734,0,0,1,5.7744-3.729,20.9793,20.9793,0,0,1,7.7881-1.3862,20.3583,20.3583,0,0,1,9.4052,2.0791,16.0666,16.0666,0,0,1,6.336,5.61,27.33,27.33,0,0,1,3.3994,7.623,33.3676,33.3676,0,0,1,0,17.16,27.3041,27.3041,0,0,1-3.3994,7.623,16.0529,16.0529,0,0,1-6.336,5.61A20.3521,20.3521,0,0,1,378.5186,213.93Zm0-7.59a10.3989,10.3989,0,0,0,5.61-1.518,10.6644,10.6644,0,0,0,3.7949-3.9932,21.1881,21.1881,0,0,0,2.0127-5.2139,23.7418,23.7418,0,0,0,.66-5.5771,24.6094,24.6094,0,0,0-.66-5.7749,20.6508,20.6508,0,0,0-2.0127-5.1812,10.3265,10.3265,0,0,0-3.7617-3.894,10.7308,10.7308,0,0,0-5.6435-1.4517,9.8985,9.8985,0,0,0-7.0616,2.6729A14.1743,14.1743,0,0,0,367.53,182.58a24.94,24.94,0,0,0-1.09,7.458,24.6887,24.6887,0,0,0,.66,5.7422,20.4561,20.4561,0,0,0,2.0137,5.2138,10.29,10.29,0,0,0,3.7617,3.8941A10.7141,10.7141,0,0,0,378.5186,206.34Z" style="fill: #fff"/>
      <path d="M405.4141,213.1382V179.4121h7.7216V182.91a7.1017,7.1017,0,0,1,6.93-4.29,9.3723,9.3723,0,0,1,6.27,2.31l-1.122,7.062a9.6694,9.6694,0,0,0-5.7422-1.7822,6.1127,6.1127,0,0,0-4.4883,1.8481q-1.8471,1.8486-1.8477,6.2041v18.876Z" style="fill: #fff"/>
      <path d="M441.6934,226.3384l-4.0918-6.2041q6.9287-.4629,9.6025-2.145a5.6943,5.6943,0,0,0,2.6729-5.1812V210.894a9.8455,9.8455,0,0,1-7.6563,3.0362,12.5283,12.5283,0,0,1-10.0645-4.5869q-3.8613-4.5866-3.8613-13.1011,0-8.1826,3.8613-12.9028a12.4568,12.4568,0,0,1,10.1309-4.7193,10.2616,10.2616,0,0,1,7.59,2.8379v-2.0459h7.7216v30.36q0,8.3811-3.5966,12.144T441.6934,226.3384Zm1.8476-19.8a7.1193,7.1193,0,0,0,6.336-3.3V189.2461a7.3265,7.3265,0,0,0-6.336-3.3,6.5121,6.5121,0,0,0-5.5771,2.64q-1.9469,2.64-1.9463,7.6558a12.7152,12.7152,0,0,0,1.9795,7.5239A6.4233,6.4233,0,0,0,443.541,206.5381Z" style="fill: #fff"/>
      <path d="M484.0244,213.1382v-2.7061a11.8808,11.8808,0,0,1-8.9765,3.4981,12.9906,12.9906,0,0,1-8.8106-2.937q-3.4-2.9364-3.3994-8.2832,0-5.4771,3.8613-8.316a15.3375,15.3375,0,0,1,9.3389-2.8378,16.1328,16.1328,0,0,1,7.9863,1.7822v-1.7822q0-3.2329-1.6172-4.6861a7.293,7.293,0,0,0-4.9834-1.4521,17.1787,17.1787,0,0,0-10.0312,3.1684l-2.376-6.27a23.0415,23.0415,0,0,1,13.1992-3.6963,22.53,22.53,0,0,1,4.6533.4292,14.1669,14.1669,0,0,1,4.1582,1.6831,8.2336,8.2336,0,0,1,3.3331,3.96,16.7735,16.7735,0,0,1,1.1875,6.7319v21.7139ZM476.5,207.1323a10.04,10.04,0,0,0,7.5244-3.2344V199.542a15.4686,15.4686,0,0,0-6.7324-1.3858,9.85,9.85,0,0,0-5.0156,1.1221,3.71,3.71,0,0,0-1.9141,3.4317,3.8274,3.8274,0,0,0,1.584,3.2343A7.4874,7.4874,0,0,0,476.5,207.1323Z" style="fill: #fff"/>
      <path d="M519.2285,213.1382V193.8q0-7.8537-6.27-7.854-6.8658,0-6.8643,7.7217v19.47H498.373V179.4121h7.7217v3.168a10.9945,10.9945,0,0,1,8.91-3.96,11.7226,11.7226,0,0,1,8.6133,3.3q3.331,3.3011,3.333,10.4937v20.7241Z" style="fill: #fff"/>
      <path d="M540.9277,173.439a4.3419,4.3419,0,0,1-3.2334,1.353,4.6187,4.6187,0,0,1-4.62-4.62,4.3441,4.3441,0,0,1,1.3526-3.2344,4.51,4.51,0,0,1,3.2675-1.32,4.5077,4.5077,0,0,1,4.5537,4.5542A4.5056,4.5056,0,0,1,540.9277,173.439ZM533.8,213.1382V179.4121h7.7227v33.7261Z" style="fill: #fff"/>
      <path d="M546.5117,213.1382v-6.2041L564.2,186.2764H547.832v-6.8643H573.77v5.94l-17.622,20.9223h17.5566v6.8638Z" style="fill: #fff"/>
      <path d="M599.0215,213.1382v-2.7061a11.881,11.881,0,0,1-8.9766,3.4981,12.99,12.99,0,0,1-8.81-2.937q-3.4-2.9364-3.3994-8.2832,0-5.4771,3.8613-8.316a15.3375,15.3375,0,0,1,9.3389-2.8378,16.1328,16.1328,0,0,1,7.9863,1.7822v-1.7822q0-3.2329-1.6172-4.6861a7.2932,7.2932,0,0,0-4.9834-1.4521,17.1793,17.1793,0,0,0-10.0313,3.1684l-2.3759-6.27a23.0411,23.0411,0,0,1,13.1992-3.6963,22.5306,22.5306,0,0,1,4.6533.4292,14.1669,14.1669,0,0,1,4.1582,1.6831,8.234,8.234,0,0,1,3.333,3.96,16.7718,16.7718,0,0,1,1.1875,6.7319v21.7139Zm-7.5244-6.0059a10.04,10.04,0,0,0,7.5244-3.2344V199.542a15.4689,15.4689,0,0,0-6.7324-1.3858,9.85,9.85,0,0,0-5.0157,1.1221,3.71,3.71,0,0,0-1.914,3.4317,3.8274,3.8274,0,0,0,1.584,3.2343A7.4872,7.4872,0,0,0,591.4971,207.1323Z" style="fill: #fff"/>
      <path d="M623.1445,213.93q-7.8545,0-7.8535-8.646v-19.14h-5.0156v-6.7319h5.0156v-10.23l7.7217-3.6958v13.9258h7.7881v6.7319h-7.7881v17.6221q0,3.2345,2.8379,3.2339a10.76,10.76,0,0,0,5.28-1.5176l-.9239,6.93A15.0948,15.0948,0,0,1,623.1445,213.93Z" style="fill: #fff"/>
      <path d="M642.9033,173.439a4.342,4.342,0,0,1-3.2334,1.353,4.6186,4.6186,0,0,1-4.62-4.62,4.3444,4.3444,0,0,1,1.3525-3.2344,4.51,4.51,0,0,1,3.2676-1.32,4.5077,4.5077,0,0,1,4.5537,4.5542A4.5056,4.5056,0,0,1,642.9033,173.439Zm-7.1279,39.6992V179.4121h7.7226v33.7261Z" style="fill: #fff"/>
      <path d="M664.5059,213.93q-7.128,0-11.2862-4.6861t-4.1582-12.936q0-8.2492,4.1582-12.9687t11.2862-4.7193q7.1278,0,11.3193,4.7193,4.1895,4.719,4.19,12.9687,0,8.2515-4.1582,12.936Q671.7,213.931,664.5059,213.93Zm0-7.3921a6.8039,6.8039,0,0,0,5.7089-2.7061q2.0787-2.7055,2.0791-7.5239a12.39,12.39,0,0,0-2.0791-7.59,6.7462,6.7462,0,0,0-5.7089-2.772,6.6782,6.6782,0,0,0-5.61,2.8047,12.2758,12.2758,0,0,0-2.1113,7.5571,12.12,12.12,0,0,0,2.0781,7.4912A6.71,6.71,0,0,0,664.5059,206.5381Z" style="fill: #fff"/>
      <path d="M706.4932,213.1382V193.8q0-7.8537-6.27-7.854-6.8657,0-6.8642,7.7217v19.47h-7.7217V179.4121h7.7217v3.168a10.9945,10.9945,0,0,1,8.91-3.96,11.7222,11.7222,0,0,1,8.6133,3.3q3.3311,3.3011,3.333,10.4937v20.7241Z" style="fill: #fff"/>
    </g>
    <g>
      <path d="M76.8564,73.3043c-1.2588,2.18-1.7408,3.1413-1.7408,3.1413A4.4132,4.4132,0,0,1,69.7324,78.54l-3.6483-1.388a3.904,3.904,0,0,0-5.0227,2.2529l-2.7659,7.2689a3.9038,3.9038,0,0,0,2.2528,5.0229l3.6442,1.3862a4.5366,4.5366,0,0,1,2.7138,5.1661l-1.5974,7.9454a4.5235,4.5235,0,0,1-4.4923,3.7161l-3.9048-.13a3.9037,3.9037,0,0,0-4.02,3.7608l-.259,7.7734a3.9036,3.9036,0,0,0,3.7606,4.02l3.9292.1306a4.5442,4.5442,0,0,1,4.2484,4.0053l1.076,8.0168a4.5233,4.5233,0,0,1-3.0431,4.9724L58.82,143.6179a3.9038,3.9038,0,0,0-2.5822,4.8611l3.4085,11.1754,20.9957-6.492A84.9709,84.9709,0,0,1,147.8884,36.7088L143.0163,15.28,131.634,17.9132a3.9038,3.9038,0,0,0-2.92,4.6666l.8885,3.857a4.5229,4.5229,0,0,1-2.7851,5.1209l-7.4826,3.0768a4.5441,4.5441,0,0,1-5.5928-1.678l-2.0769-3.3373a3.9041,3.9041,0,0,0-5.3622-1.2473L99.7,32.4813a3.9034,3.9034,0,0,0-1.248,5.3614l2.0644,3.3172a4.5254,4.5254,0,0,1-.9722,5.7486l-6.0832,5.3548a4.5361,4.5361,0,0,1-5.8315.2313l-3.0223-2.4623a3.9028,3.9028,0,0,0-5.4762.5591l-4.9122,6.0292a3.9029,3.9029,0,0,0,.5591,5.4763l3.0256,2.4658A4.413,4.413,0,0,1,78.68,70.272S78.1144,71.125,76.8564,73.3043Z" style="fill: #fff"/>
      <path d="M157.8888,213.7682c2.516,0,3.59-.0637,3.59-.0637a4.413,4.413,0,0,1,4.5057,3.6156l.6219,3.8519a3.9031,3.9031,0,0,0,4.4638,3.2235l7.677-1.2388a3.9043,3.9043,0,0,0,3.2235-4.4638l-.6218-3.8469a4.5376,4.5376,0,0,1,3.1177-4.9348l7.6788-2.5881a4.5239,4.5239,0,0,1,5.4645,2.0316l1.8389,3.4463a3.9044,3.9044,0,0,0,5.2683,1.6008l6.8609-3.6626a3.9006,3.9006,0,0,0,1.6007-5.2651l-1.8505-3.4681a4.5418,4.5418,0,0,1,1.3444-5.6823l6.4048-4.9416a4.5253,4.5253,0,0,1,5.8282.1492l2.895,2.6988a3.9054,3.9054,0,0,0,5.5012-.1945l7.9738-8.54-16.12-14.937A84.9712,84.9712,0,0,1,90.68,170.55l-16.122,14.9335,7.9722,8.542a3.9055,3.9055,0,0,0,5.5013.1945l2.895-2.6988a4.5256,4.5256,0,0,1,5.8282-.1475l6.4048,4.9415a4.5445,4.5445,0,0,1,1.3443,5.6824l-1.8522,3.4683a3.9038,3.9038,0,0,0,1.6008,5.2666l6.8608,3.6625a3.9034,3.9034,0,0,0,5.2668-1.599l1.84-3.4463a4.5239,4.5239,0,0,1,5.4645-2.0316l7.68,2.59a4.5363,4.5363,0,0,1,3.1152,4.9348l-.621,3.8487a3.9022,3.9022,0,0,0,3.2216,4.4621l7.6781,1.24a3.9034,3.9034,0,0,0,4.4638-3.2234l.6219-3.852a4.4113,4.4113,0,0,1,4.5066-3.6139S155.3728,213.7682,157.8888,213.7682Z" style="fill: #fff"/>
      <path d="M239.0183,73.36c-1.2571-2.1791-1.8488-3.0777-1.8488-3.0777a4.4113,4.4113,0,0,1,.8766-5.7092l3.0273-2.4657a3.905,3.905,0,0,0,.56-5.4762l-4.9114-6.0294a3.9042,3.9042,0,0,0-5.478-.56l-3.02,2.4617a4.54,4.54,0,0,1-5.8334-.2321l-6.0814-5.3566a4.5242,4.5242,0,0,1-.9722-5.7477l2.0652-3.3173a3.9025,3.9025,0,0,0-1.2472-5.3613l-6.6009-4.1111a3.9065,3.9065,0,0,0-5.364,1.2472l-2.0769,3.3373a4.543,4.543,0,0,1-5.5919,1.6763l-7.4827-3.0776a4.5227,4.5227,0,0,1-2.7841-5.1216l.8884-3.8562a3.9034,3.9034,0,0,0-2.9183-4.6667l-11.3834-2.6349L167.9663,36.71a84.972,84.972,0,0,1,67.23,116.4628l20.993,6.4938,3.4112-11.1737a3.9045,3.9045,0,0,0-2.5815-4.8619l-3.7849-1.1591a4.5231,4.5231,0,0,1-3.0423-4.9717l1.0778-8.0157a4.5429,4.5429,0,0,1,4.2493-4.0054l3.9291-.13a3.9032,3.9032,0,0,0,3.76-4.02l-.2564-7.7735a3.9037,3.9037,0,0,0-4.02-3.7615l-3.9056.13a4.525,4.525,0,0,1-4.4906-3.717l-1.5975-7.9462a4.5361,4.5361,0,0,1,2.7154-5.1653l3.6442-1.3854a3.9025,3.9025,0,0,0,2.2529-5.0228l-2.7642-7.2689a3.9028,3.9028,0,0,0-5.0219-2.2537l-3.6492,1.3871a4.4137,4.4137,0,0,1-5.3824-2.0953S240.2772,75.5394,239.0183,73.36Z" style="fill: #fff"/>
      <path d="M36.2766,71.5224c-.0553.11-.0855.1718-.0855.1718S36.2213,71.6372,36.2766,71.5224Z" style="fill: #fff"/>
      <path d="M69.7441,27.435l.2942.36a26.9421,26.9421,0,0,1,7.9052-3.98c21.1725-5.9515,20.1155-13.2725,29.0658-17.62l-.2707-.4391a14.5571,14.5571,0,0,1-7.4609,2.2093C74.4359,8.2773,76.3235,22.7684,69.7441,27.435Z" style="fill: #fff"/>
      <path d="M45.0557,55.0041l.4552.2939c5.0372-5.5909,9.8856-6.6352,10.7018-6.8766,19.7117-5.8316,26.5894-18.8694,31.92-22.58l-.1978-.2966c-7.2772,5.1669-15.945-.068-30.6985,15.6936-.087.0939-.5-.4685-.5-.4685C68.7,26.3162,69.0024,16.5043,74.5431,11.132l-.2933-.2665C39.3408,31.6743,54.6623,43.0709,45.0557,55.0041Z" style="fill: #fff"/>
      <path d="M46.5049,30.8562C13.5989,63.46,34.0807,71.7957,28.9263,88.0181l.326.1425C32.2151,81.2839,39.85,78.27,40.0456,78.18c13.937-6.4283,18.3153-22.655,23.8912-27.6008l-.2815-.26c-6.8047,7.3938-18.05,3.2425-27.16,21.5345-.03.06-.6211-.2918-.6118-.3119,7.3863-15.9334,3.93-30.35,10.9541-40.274A2.4111,2.4111,0,0,0,46.5049,30.8562Z" style="fill: #fff"/>
      <path d="M22.601,131.3043l.487.0235c-.12-1.8539-.6211-9.6358,7.1356-16.8119,15.6327-14.46,12.9725-27.3334,19.3773-37.265l-.4835-.2683c-4.9776,8.4835-23.1722,17.753-23.9359,30.7942a2.69,2.69,0,0,1-.69-.104C27.147,88.9853,17.2774,76.541,22.663,64.7034a3.0417,3.0417,0,0,0-.4786-.27C1.3138,107.3509,18.65,106.7509,22.601,131.3043Z" style="fill: #fff"/>
      <path d="M30.6486,172.0953l.5129-.1792c-4.3179-9.7021,2.9-22.9494,3.2277-23.5864,9.4933-18.4066,6.3177-35.0566,8.4825-40.868l-.4509-.1259C37.36,119.9671,23.285,126.8329,25.4749,148.07a2.0141,2.0141,0,0,1-.6873-.0034C22.5692,134.9,7.6366,122.256,8.116,107.8757a1.9869,1.9869,0,0,0-.2524-.0186C-1.4318,158.9287,25.087,158.585,30.6486,172.0953Z" style="fill: #fff"/>
      <path d="M51.8957,209.9077l.3537-.2832a28.31,28.31,0,0,1-6.0169-23.33c4.4119-25.4753-3.8343-30.0631-4.0237-41.5965H41.78c-.3737,12.8961-13.58,27.4055-1.5915,45.4452l-.5792.3687C26.4019,171.2355,15.9238,175.9474,9.7461,156.773H9.7385a1.2838,1.2838,0,0,0-.55.1558C18.4784,213.0827,43.4534,196.0906,51.8957,209.9077Z" style="fill: #fff"/>
      <path d="M103.4447,234.4009l-.1122-.518c-17.3967,3.4882-26.285.1492-29.443-15.852-4.4319-22.4565-19.7082-31.1243-21.4944-40.1005h-.0326a.963.963,0,0,0-.4308.067l.0026.01c3.277,15.8505-4.447,25.291,14.6838,44.2759l-.5206.4492c-18.4108-14.5983-31.0546-9.2208-38.37-19.3655a1.4637,1.4637,0,0,0-.3108.3253C50.2329,241.5768,74.6925,243.6353,103.4447,234.4009Z" style="fill: #fff"/>
      <path d="M60.4538,240.92l.1431-.1977c23.4062,13.6494,47.8716-5.3791,77.509-6.0579,7.4357-.171,29.6726,1.1733,50.0791,24.8953l-5.4177,1.5488c-6.7451-11.715-17.1477-20.1818-26.58-22.5385-26.9656-6.7418-27.49,18.4-57.4369,18.7889C76.527,257.6485,61.3254,241.8049,60.4538,240.92Z" style="fill: #fff"/>
      <path d="M279.2478,71.5224c.0538.11.0855.1718.0855.1718S279.3031,71.6372,279.2478,71.5224Z" style="fill: #fff"/>
      <path d="M279.2478,71.5224c.0538.11.0855.1718.0855.1718S279.3031,71.6372,279.2478,71.5224Z" style="fill: #fff"/>
      <path d="M36.2766,71.5224c-.0545.11-.0855.1718-.0855.1718S36.2213,71.6372,36.2766,71.5224Z" style="fill: #fff"/>
      <path d="M279.2478,71.5224c.0538.11.0855.1718.0855.1718S279.3031,71.6372,279.2478,71.5224Z" style="fill: #fff"/>
      <path d="M245.78,27.435l-.2951.36a26.93,26.93,0,0,0-7.9051-3.98c-21.1723-5.9515-20.1147-13.2725-29.0659-17.62l.2716-.4391a14.5549,14.5549,0,0,0,7.4609,2.2093C241.0868,8.2773,239.2011,22.7684,245.78,27.435Z" style="fill: #fff"/>
      <path d="M270.4678,55.0041l-.4543.2939c-5.037-5.5909-9.8863-6.6352-10.7027-6.8766C239.6,42.59,232.7223,29.552,227.392,25.8409l.1978-.2966c7.2766,5.1669,15.9443-.068,30.6985,15.6936.0872.0939.5-.4685.5-.4685-11.9649-14.4532-12.2667-24.2651-17.8065-29.6374l.2933-.2665C276.1838,31.6743,260.8613,43.0709,270.4678,55.0041Z" style="fill: #fff"/>
      <path d="M269.02,30.8562c32.906,32.6035,12.4242,40.9395,17.577,57.1619l-.3252.1425c-2.962-6.8767-10.5971-9.8906-10.7933-9.9811-13.9378-6.4283-18.3145-22.655-23.8913-27.6008l.2815-.26c6.8057,7.3938,18.05,3.2425,27.16,21.5345.03.06.6219-.2918.6118-.3119-7.3855-15.9334-3.929-30.35-10.9541-40.274A2.372,2.372,0,0,1,269.02,30.8562Z" style="fill: #fff"/>
      <path d="M292.9225,131.3043l-.4861.0235c.119-1.8539.62-9.6358-7.1373-16.8119-15.6308-14.46-12.9706-27.3334-19.3756-37.265l.4828-.2683c4.9784,8.4835,23.1722,17.753,23.9349,30.7942a2.6843,2.6843,0,0,0,.69-.104c-2.655-18.6875,7.2146-31.1318,1.8289-42.9694a3.0574,3.0574,0,0,1,.4794-.27C314.2108,107.3509,296.8735,106.7509,292.9225,131.3043Z" style="fill: #fff"/>
      <path d="M284.8749,172.0953l-.5129-.1792c4.318-9.7021-2.9-22.9494-3.2267-23.5864-9.4941-18.4066-6.3176-35.0566-8.4835-40.868l.4509-.1259c5.0624,12.6313,19.136,19.4971,16.9468,40.7342a2.0142,2.0142,0,0,0,.6873-.0034c2.2177-13.1668,17.1512-25.8106,16.6718-40.1909a1.9594,1.9594,0,0,1,.2513-.0186C316.9564,158.9287,290.4368,158.585,284.8749,172.0953Z" style="fill: #fff"/>
      <path d="M263.6287,209.9077l-.3537-.2832a28.3126,28.3126,0,0,0,6.016-23.33c-4.4118-25.4753,3.8353-30.0631,4.023-41.5965h.4292c.3738,12.8961,13.5808,27.4055,1.5923,45.4452l.5783.3687c13.2087-19.2766,23.6868-14.5647,29.8638-33.7391h.0084a1.2953,1.2953,0,0,1,.55.1558C297.0462,213.0827,272.07,196.0906,263.6287,209.9077Z" style="fill: #fff"/>
      <path d="M212.08,234.4009l.1122-.518c17.396,3.4882,26.285.1492,29.443-15.852,4.4321-22.4565,19.7075-31.1243,21.4944-40.1005h.0317a.9549.9549,0,0,1,.4308.067l-.0017.01c-3.2769,15.8505,4.4472,25.291-14.6836,44.2759l.52.4492c18.41-14.5983,31.0555-9.2208,38.3706-19.3655a1.4582,1.4582,0,0,1,.31.3253C265.2917,241.5768,240.8321,243.6353,212.08,234.4009Z" style="fill: #fff"/>
      <path d="M255.07,240.92l-.1425-.1977c-23.407,13.6494-47.8716-5.3791-77.5107-6.0579-7.434-.171-29.6709,1.1733-50.0789,24.8953l5.4192,1.5488c6.7451-11.715,17.1477-20.1818,26.58-22.5385,26.9638-6.7418,27.49,18.4,57.4362,18.7889C238.9965,257.6485,254.1983,241.8049,255.07,240.92Z" style="fill: #fff"/>
      <path d="M36.2766,71.5224c-.0545.11-.0855.1718-.0855.1718S36.2213,71.6372,36.2766,71.5224Z" style="fill: #fff"/>
      <path d="M36.2766,71.5224c-.0545.11-.0855.1718-.0855.1718S36.2213,71.6372,36.2766,71.5224Z" style="fill: #fff"/>
      <path d="M279.2478,71.5224c.0538.11.0855.1718.0855.1718S279.3031,71.6372,279.2478,71.5224Z" style="fill: #fff"/>
      <path d="M194.1892,72.25H193.78c-10.9355,0-21.4639,7.047-26.6889,18.7688-2.6584,5.9658-3.2686,13.7343-3.2753,21.2069.0067,7.4659.6169,15.23,3.2753,21.1942,5.225,11.7337,15.7534,19.7511,26.6889,19.7511h.4091c10.9357,0,21.4574-8.0174,26.6822-19.7511,2.6569-5.964,3.2686-13.7283,3.2805-21.1942-.0119-7.4726-.6236-15.2411-3.2805-21.2069C215.6466,79.2968,205.1249,72.25,194.1892,72.25ZM211.02,112.6982c-.0218,7.0234-.1895,13.0712-.1895,13.0712-.4408,5.7369-.5263,11.4989-3.1914,15.4179a15.2956,15.2956,0,0,1-12.6758,6.7771l-.19.0653h-.6167l-.1828-.0653a15.3058,15.3058,0,0,1-12.6856-6.7771c-2.657-3.919-2.7541-9.681-3.1949-15.4179,0,0-.1694-5.9808-.1828-12.9481v-.3158c.0134-7.0234.1828-13.0738.1828-13.0738.4408-5.7369.5312-11.4931,3.1949-15.4181a15.2787,15.2787,0,0,1,12.6789-6.7761l.1828-.06h.6152l.1844.06a15.283,15.283,0,0,1,12.6824,6.7761c2.6668,3.925,2.7573,9.6812,3.1981,15.4181,0,0,.1677,5.9824.1895,12.9462Z" style="fill: #fff"/>
      <path d="M202.3827,156.5215s-2.144,5.57-6.1283,8.9931c-2.1892,1.8807-5.431,2.3752-8.0107,2.6735l-26.9187,1.3342H155.38s-4.5118-.2547-4.7572-4.4487V70.7605c.2454-4.1939,4.7572-4.4479,4.7572-4.4479h5.9446V60.8187H125.33v5.4939h5.9482s4.5081.254,4.7546,4.4479v94.3131c-.2465,4.194-4.7546,4.4487-4.7546,4.4487H125.33v5.4982H161.325l38.9791.1474,4.7891-17.3942v-.6269Z" style="fill: #fff"/>
      <path d="M117.8067,82.6189c.2061-3.4989,3.9719-3.7119,3.9719-3.7119h4.9592V74.3225H96.7021V78.907h4.9642s3.7615.213,3.9676,3.7119v60.3c-.2061,3.5-3.9676,3.7129-3.9676,3.7129H96.7021V151.22h30.0357v-4.5877h-4.9592s-3.7658-.2129-3.9719-3.7129Z" style="fill: #fff"/>
    </g>
    <rect x="763.2047" y="34.9385" width="3.96" height="191.4016" style="fill: #fff"/>
  </g>
</svg>
