<?xml version="1.0" encoding="utf-8"?>
<!-- Generator: Adobe Illustrator 24.0.2, SVG Export Plug-In . SVG Version: 6.00 Build 0)  -->
<svg version="1.1" id="Laag_1" xmlns="http://www.w3.org/2000/svg" xmlns:xlink="http://www.w3.org/1999/xlink" x="0px" y="0px"
	 viewBox="0 0 759.1 277" style="enable-background:new 0 0 759.1 277;" xml:space="preserve">
<style type="text/css">
	.st0{fill:#FFFFFF;}
</style>
<title>logo-ilo</title>
<g id="Lockup">
	<path class="st0" d="M371.2,89.4V43.2h7.9v46.2H371.2z"/>
	<path class="st0" d="M407.6,89.4V70c0-5.2-2.1-7.8-6.3-7.8c-4.6,0-6.9,2.6-6.9,7.7v19.5h-7.7V55.6h7.7v3.2c2.2-2.7,5.5-4.1,8.9-4
		c3.2-0.1,6.3,1.1,8.6,3.3c2.2,2.2,3.3,5.7,3.3,10.5v20.8H407.6z"/>
	<path class="st0" d="M432,90.2c-5.2,0-7.9-2.9-7.9-8.6V62.4h-5v-6.7h5V45.4l7.7-3.7v13.9h7.8v6.7h-7.8V80c0,2.2,0.9,3.2,2.8,3.2
		c1.9,0,3.7-0.6,5.3-1.5l-1,6.9C436.8,89.7,434.4,90.2,432,90.2z"/>
	<path class="st0" d="M458.6,90.2c-4.8,0-8.6-1.6-11.4-4.7s-4.2-7.5-4.2-13c0-5.4,1.4-9.7,4.2-12.9s6.6-4.7,11.4-4.7
		c3.9-0.2,7.7,1.3,10.6,4c2.8,2.7,4.1,6.6,4.1,11.8c0,1.6-0.1,3.2-0.3,4.8h-22.4c0,2.2,0.9,4.2,2.5,5.8c1.5,1.4,3.4,2.2,5.5,2.2
		c2.8,0.1,5.5-1.2,7.1-3.5l4.9,5C467.7,88.4,463.7,90.2,458.6,90.2z M450.8,69h14.9c0-2.1-0.8-4-2.2-5.5c-1.3-1.2-3-1.9-4.8-1.9
		c-2-0.1-3.9,0.6-5.5,1.8C451.6,64.9,450.8,66.9,450.8,69z"/>
	<path class="st0" d="M478.7,89.4V55.6h7.7v3.5c1.2-2.7,3.9-4.5,6.9-4.3c2.3,0,4.5,0.8,6.3,2.3l-1.1,7.1c-1.7-1.2-3.7-1.8-5.7-1.8
		c-1.7,0-3.3,0.6-4.5,1.8c-1.2,1.2-1.9,3.3-1.9,6.2v18.9H478.7z"/>
	<path class="st0" d="M524.3,89.4V70c0-5.2-2.1-7.8-6.3-7.8c-4.6,0-6.9,2.6-6.9,7.7v19.5h-7.7V55.6h7.7v3.2c2.2-2.7,5.5-4.1,8.9-4
		c3.2-0.1,6.3,1.1,8.6,3.3c2.2,2.2,3.3,5.7,3.3,10.5v20.8H524.3z"/>
	<path class="st0" d="M558.1,89.4v-2.7c-2.4,2.4-5.6,3.7-9,3.5c-3.2,0.1-6.3-0.9-8.8-2.9c-2.3-2-3.4-4.7-3.4-8.3s1.3-6.3,3.9-8.3
		c2.7-1.9,6-2.9,9.3-2.8c2.8-0.1,5.5,0.5,8,1.8v-1.8c0-2.2-0.5-3.7-1.6-4.7c-1.4-1.1-3.2-1.6-5-1.5c-3.6,0-7.1,1.1-10,3.2l-2.4-6.3
		c5.3-3.3,11.7-4.4,17.8-3.3c1.5,0.4,2.9,0.9,4.2,1.7c1.5,0.9,2.7,2.3,3.3,4c0.9,2.1,1.3,4.4,1.2,6.7v21.6H558.1z M550.6,83.4
		c2.9,0,5.6-1.1,7.5-3.2v-4.4c-2.1-1-4.4-1.4-6.7-1.4c-1.7-0.1-3.5,0.3-5,1.1c-1.2,0.7-2,2-1.9,3.4c0,1.3,0.6,2.5,1.6,3.2
		C547.4,83,549,83.5,550.6,83.4L550.6,83.4z"/>
	<path class="st0" d="M582.3,90.2c-5.2,0-7.9-2.9-7.9-8.6V62.4h-5v-6.7h5V45.4l7.7-3.7v13.9h7.8v6.7h-7.8V80c0,2.2,0.9,3.2,2.8,3.2
		c1.9,0,3.7-0.6,5.3-1.5l-0.9,6.9C587.1,89.7,584.7,90.2,582.3,90.2z"/>
	<path class="st0" d="M602,49.7c-0.8,0.9-2,1.4-3.2,1.3c-2.5,0-4.6-2.1-4.6-4.6c0,0,0,0,0,0c0-1.2,0.5-2.4,1.3-3.2
		c0.9-0.9,2-1.3,3.3-1.3c2.5,0,4.5,2,4.6,4.5c0,0,0,0.1,0,0.1C603.4,47.6,602.9,48.8,602,49.7z M594.9,89.4V55.6h7.7v33.7H594.9z"/>
	<path class="st0" d="M623.6,90.2c-4.7,0-8.5-1.6-11.3-4.7c-2.8-3.1-4.2-7.4-4.2-12.9c0-5.5,1.4-9.8,4.2-13s6.5-4.7,11.3-4.7
		c4.8,0,8.5,1.6,11.3,4.7s4.2,7.5,4.2,13c0,5.5-1.4,9.8-4.2,12.9S628.4,90.2,623.6,90.2z M623.6,82.8c2.2,0.1,4.4-0.9,5.7-2.7
		c1.4-1.8,2.1-4.3,2.1-7.5c0.1-2.7-0.6-5.4-2.1-7.6c-1.3-1.8-3.5-2.9-5.7-2.8c-2.2-0.1-4.3,1-5.6,2.8c-1.5,2.2-2.3,4.9-2.1,7.6
		c-0.1,2.6,0.6,5.3,2.1,7.4C619.3,81.8,621.4,82.8,623.6,82.8z"/>
	<path class="st0" d="M665.6,89.4V70c0-5.2-2.1-7.8-6.3-7.8c-4.6,0-6.9,2.6-6.9,7.7v19.5h-7.7V55.6h7.7v3.2c2.2-2.7,5.5-4.1,8.9-4
		c3.2-0.1,6.3,1.1,8.6,3.3c2.2,2.2,3.3,5.7,3.3,10.5v20.8H665.6z"/>
	<path class="st0" d="M699.5,89.4v-2.7c-2.4,2.4-5.6,3.7-9,3.5c-3.2,0.1-6.3-0.9-8.8-2.9c-2.3-2-3.4-4.7-3.4-8.3s1.3-6.3,3.9-8.3
		c2.7-1.9,6-2.9,9.3-2.8c2.8-0.1,5.5,0.5,8,1.8v-1.8c0-2.2-0.5-3.7-1.6-4.7c-1.4-1.1-3.2-1.6-5-1.5c-3.6,0-7.1,1.1-10,3.2l-2.4-6.3
		c5.3-3.3,11.7-4.4,17.8-3.3c1.5,0.4,2.9,0.9,4.2,1.7c1.5,0.9,2.7,2.3,3.3,4c0.8,2.1,1.2,4.4,1.2,6.7v21.7H699.5z M692,83.4
		c2.9,0,5.6-1.1,7.5-3.2v-4.4c-2.1-1-4.4-1.4-6.7-1.4c-1.7-0.1-3.5,0.3-5,1.1c-1.2,0.7-2,2-1.9,3.4c0,1.3,0.5,2.5,1.6,3.2
		C688.8,83,690.4,83.5,692,83.4L692,83.4z"/>
	<path class="st0" d="M714,89.4v-44l7.7-3.6v47.6H714z"/>
	<path class="st0" d="M370.9,155.4v-46.2h7.9v38.6h22.4v7.6H370.9z"/>
	<path class="st0" d="M425.7,155.4v-2.7c-2.4,2.4-5.6,3.7-9,3.5c-3.2,0.1-6.3-0.9-8.8-2.9c-2.3-2-3.4-4.7-3.4-8.3
		c0-3.6,1.3-6.3,3.9-8.3c2.7-1.9,6-2.9,9.3-2.8c2.8-0.1,5.5,0.5,8,1.8v-1.8c0-2.2-0.5-3.7-1.6-4.7c-1.4-1.1-3.2-1.6-5-1.4
		c-3.6,0-7.1,1.1-10,3.2l-2.4-6.3c5.3-3.3,11.7-4.4,17.9-3.3c1.5,0.3,2.9,0.9,4.2,1.7c1.5,0.9,2.7,2.3,3.3,4
		c0.9,2.1,1.3,4.4,1.2,6.7v21.7L425.7,155.4z M418.2,149.4c2.9,0,5.6-1.1,7.5-3.2v-4.4c-2.1-1-4.4-1.4-6.7-1.4
		c-1.7-0.1-3.5,0.3-5,1.1c-1.2,0.7-2,2-1.9,3.4c0,1.3,0.6,2.5,1.6,3.2C415,149,416.6,149.5,418.2,149.4L418.2,149.4z"/>
	<path class="st0" d="M455.2,156.1c-2.9,0.1-5.6-1.1-7.5-3.4v2.6H440v-44.2l7.7-3.5v16.4c1.9-2.2,4.7-3.4,7.6-3.3
		c3.9-0.1,7.7,1.7,10.1,4.8c2.6,3.2,3.9,7.5,3.9,12.9c0,5.6-1.3,10-3.8,13.1C463.1,154.6,459.2,156.3,455.2,156.1z M454.3,148.8
		c2.2,0.1,4.2-0.9,5.4-2.7c1.4-2.3,2-4.9,1.9-7.6c0-3.3-0.6-5.9-1.9-7.6c-1.2-1.7-3.3-2.7-5.4-2.6c-2.6-0.1-5.1,1.1-6.5,3.3v14.1
		C449.2,147.7,451.7,148.9,454.3,148.8z"/>
	<path class="st0" d="M488.9,156.1c-4.7,0-8.5-1.6-11.3-4.7c-2.8-3.1-4.2-7.4-4.2-12.9c0-5.5,1.4-9.8,4.2-13
		c2.8-3.2,6.5-4.7,11.3-4.7c4.8,0,8.5,1.6,11.3,4.7c2.8,3.1,4.2,7.5,4.2,13c0,5.5-1.4,9.8-4.2,12.9
		C497.5,154.6,493.7,156.2,488.9,156.1z M488.9,148.8c2.2,0.1,4.4-0.9,5.7-2.7c1.4-1.8,2.1-4.3,2.1-7.5c0.2-2.7-0.6-5.4-2.1-7.6
		c-2.4-3.1-6.9-3.7-10-1.3c-0.5,0.4-0.9,0.8-1.3,1.3c-1.5,2.2-2.3,4.9-2.1,7.6c-0.2,2.7,0.6,5.3,2.1,7.5
		C484.6,147.8,486.7,148.8,488.9,148.8z"/>
	<path class="st0" d="M530.5,155.4v-3.2c-2.1,2.7-5.4,4.2-8.8,4c-3.2,0.1-6.3-1.1-8.6-3.3c-2.2-2.2-3.4-5.7-3.4-10.5v-20.6h7.7v19.3
		c0,5.2,2.1,7.8,6.3,7.9c4.5,0,6.8-2.6,6.8-7.7v-19.4h7.7v33.7H530.5z"/>
	<path class="st0" d="M545.4,155.4v-33.7h7.7v3.5c1.2-2.7,3.9-4.5,6.9-4.3c2.3,0,4.5,0.8,6.3,2.3l-1.1,7.1c-1.7-1.2-3.7-1.8-5.7-1.8
		c-1.7,0-3.3,0.6-4.5,1.9c-1.2,1.2-1.8,3.3-1.8,6.2v18.9H545.4z"/>
	<path class="st0" d="M389.5,222.1c-2.7,0-5.3-0.4-7.8-1.4c-2.2-0.8-4.1-2.1-5.8-3.7c-1.5-1.6-2.8-3.4-3.8-5.4c-1-2-1.8-4.2-2.2-6.4
		c-0.9-4.6-0.9-9.2,0-13.8c0.4-2.2,1.2-4.4,2.2-6.4c1-2,2.3-3.8,3.8-5.4c1.6-1.6,3.6-2.9,5.8-3.7c2.5-0.9,5.1-1.4,7.8-1.4
		c3.3-0.1,6.5,0.6,9.4,2.1c2.6,1.3,4.8,3.2,6.3,5.6c1.5,2.4,2.7,4.9,3.4,7.6c1.5,5.6,1.5,11.5,0,17.2c-0.7,2.7-1.9,5.3-3.4,7.6
		c-1.6,2.4-3.8,4.3-6.3,5.6C396,221.5,392.7,222.2,389.5,222.1z M389.5,214.6c2,0,3.9-0.5,5.6-1.6c1.6-1,2.9-2.4,3.8-4
		c0.9-1.6,1.6-3.4,2-5.2c0.4-1.8,0.7-3.7,0.7-5.6c0-1.9-0.2-3.9-0.7-5.8c-0.4-1.8-1.1-3.6-2-5.2c-0.9-1.6-2.2-2.9-3.8-3.9
		c-1.7-1-3.7-1.5-5.6-1.4c-2.6-0.1-5.2,0.9-7.1,2.7c-1.8,1.7-3.2,3.8-3.9,6.2c-1.3,4.3-1.4,8.8-0.4,13.2c0.4,1.8,1.1,3.6,2,5.2
		c0.9,1.6,2.2,3,3.8,3.9C385.5,214.1,387.5,214.6,389.5,214.6z"/>
	<path class="st0" d="M416.4,221.4v-33.7h7.7v3.5c1.2-2.7,3.9-4.5,6.9-4.3c2.3,0,4.5,0.8,6.3,2.3l-1.1,7.1c-1.7-1.2-3.7-1.8-5.7-1.8
		c-1.7,0-3.3,0.6-4.5,1.9c-1.2,1.2-1.8,3.3-1.9,6.2v18.9L416.4,221.4z"/>
	<path class="st0" d="M452.7,234.6l-4.1-6.2c4.6-0.3,7.8-1,9.6-2.1c1.8-1.1,2.8-3.1,2.7-5.2v-1.9c-2,2.1-4.8,3.2-7.6,3
		c-3.9,0.1-7.6-1.6-10.1-4.6c-2.6-3.1-3.9-7.4-3.9-13.1c0-5.5,1.3-9.8,3.9-12.9c2.4-3.1,6.2-4.8,10.1-4.7c2.8-0.1,5.6,0.9,7.6,2.8
		v-2.1h7.7V218c0,5.6-1.2,9.6-3.6,12.1C462.6,232.7,458.5,234.1,452.7,234.6z M454.5,214.8c2.5,0.1,5-1.1,6.3-3.3v-14
		c-1.4-2.1-3.8-3.4-6.3-3.3c-2.2-0.1-4.3,0.9-5.6,2.6c-1.3,1.8-2,4.3-2,7.6c-0.1,2.7,0.6,5.3,2,7.5
		C450.2,213.8,452.3,214.8,454.5,214.8z"/>
	<path class="st0" d="M495,221.4v-2.7c-2.4,2.4-5.6,3.7-9,3.5c-3.2,0.1-6.3-0.9-8.8-2.9c-2.3-2-3.4-4.7-3.4-8.3s1.3-6.4,3.9-8.3
		c2.7-1.9,6-2.9,9.3-2.8c2.8-0.1,5.5,0.5,8,1.8v-1.8c0-2.2-0.5-3.7-1.6-4.7c-1.4-1.1-3.2-1.6-5-1.4c-3.6,0-7.1,1.1-10,3.2l-2.4-6.3
		c5.3-3.3,11.7-4.4,17.9-3.3c1.5,0.4,2.9,0.9,4.1,1.7c1.5,0.9,2.7,2.3,3.3,4c0.9,2.1,1.3,4.4,1.2,6.7v21.7L495,221.4z M487.5,215.4
		c2.9,0,5.6-1.1,7.5-3.2v-4.4c-2.1-1-4.4-1.4-6.7-1.4c-1.7-0.1-3.5,0.3-5,1.1c-1.2,0.7-2,2-1.9,3.4c0,1.3,0.5,2.5,1.6,3.2
		C484.3,215,485.9,215.5,487.5,215.4L487.5,215.4z"/>
	<path class="st0" d="M530.2,221.4V202c0-5.2-2.1-7.9-6.3-7.9c-4.6,0-6.9,2.6-6.9,7.7v19.5h-7.7v-33.7h7.7v3.2
		c2.2-2.7,5.5-4.1,8.9-4c3.2-0.1,6.3,1.1,8.6,3.3c2.2,2.2,3.3,5.7,3.3,10.5v20.7L530.2,221.4z"/>
	<path class="st0" d="M551.9,181.7c-0.8,0.9-2,1.4-3.2,1.4c-2.5,0-4.6-2.1-4.6-4.6c0,0,0,0,0,0c0-1.2,0.5-2.4,1.3-3.2
		c0.9-0.9,2-1.3,3.3-1.3c2.5,0,4.5,2,4.5,4.5c0,0,0,0.1,0,0.1C553.2,179.6,552.8,180.8,551.9,181.7z M544.8,221.4v-33.7h7.7v33.7
		H544.8z"/>
	<path class="st0" d="M557.5,221.4v-6.2l17.7-20.7h-16.4v-6.9h25.9v5.9l-17.6,20.9h17.6v6.9H557.5z"/>
	<path class="st0" d="M610,221.4v-2.7c-2.4,2.4-5.6,3.7-9,3.5c-3.2,0.1-6.3-0.9-8.8-2.9c-2.3-2-3.4-4.7-3.4-8.3
		c0-3.6,1.3-6.3,3.9-8.3c2.7-1.9,6-2.9,9.3-2.8c2.8-0.1,5.5,0.5,8,1.8v-1.8c0-2.2-0.5-3.7-1.6-4.7c-1.4-1.1-3.2-1.6-5-1.4
		c-3.6,0-7.1,1.1-10,3.2l-2.4-6.3c5.3-3.3,11.7-4.4,17.8-3.3c1.5,0.4,2.9,0.9,4.2,1.7c1.5,0.9,2.7,2.3,3.3,4
		c0.9,2.1,1.3,4.4,1.2,6.7v21.7L610,221.4z M602.5,215.4c2.9,0,5.6-1.1,7.5-3.2v-4.4c-2.1-1-4.4-1.4-6.7-1.4c-1.7-0.1-3.5,0.3-5,1.1
		c-1.2,0.7-2,2-1.9,3.4c0,1.3,0.5,2.5,1.6,3.2C599.3,215,600.9,215.5,602.5,215.4L602.5,215.4z"/>
	<path class="st0" d="M634.1,222.1c-5.2,0-7.9-2.9-7.8-8.6v-19.1h-5v-6.7h5v-10.2l7.7-3.7v13.9h7.8v6.7H634V212
		c0,2.1,0.9,3.2,2.8,3.2c1.9,0,3.7-0.6,5.3-1.5l-0.9,6.9C639,221.7,636.6,222.2,634.1,222.1z"/>
	<path class="st0" d="M653.9,181.7c-0.8,0.9-2,1.4-3.2,1.4c-2.5,0-4.6-2.1-4.6-4.6c0,0,0,0,0,0c0-1.2,0.5-2.4,1.3-3.2
		c0.9-0.9,2-1.3,3.3-1.3c2.5,0,4.5,2,4.5,4.5c0,0,0,0.1,0,0.1C655.2,179.6,654.7,180.8,653.9,181.7z M646.7,221.4v-33.7h7.7v33.7
		H646.7z"/>
	<path class="st0" d="M675.5,222.1c-4.7,0-8.5-1.6-11.3-4.7c-2.8-3.1-4.2-7.4-4.2-12.9c0-5.5,1.4-9.8,4.2-13
		c2.8-3.2,6.5-4.7,11.3-4.7c4.8,0,8.5,1.6,11.3,4.7c2.8,3.1,4.2,7.5,4.2,13c0,5.5-1.4,9.8-4.2,12.9
		C684,220.6,680.2,222.2,675.5,222.1z M675.5,214.8c2.2,0.1,4.4-0.9,5.7-2.7c1.4-1.8,2.1-4.3,2.1-7.5c0.2-2.7-0.6-5.4-2.1-7.6
		c-2.4-3.1-6.9-3.7-10-1.3c-0.5,0.4-0.9,0.8-1.3,1.3c-1.5,2.2-2.3,4.9-2.1,7.6c-0.2,2.7,0.6,5.3,2.1,7.5
		C671.1,213.8,673.2,214.8,675.5,214.8z"/>
	<path class="st0" d="M717.5,221.4V202c0-5.2-2.1-7.9-6.3-7.9c-4.6,0-6.9,2.6-6.9,7.7v19.5h-7.7v-33.7h7.7v3.2
		c2.2-2.7,5.5-4.1,8.9-4c3.2-0.1,6.3,1.1,8.6,3.3c2.2,2.2,3.3,5.7,3.3,10.5v20.7L717.5,221.4z"/>
	<path class="st0" d="M87.8,81.5c-1.3,2.2-1.7,3.1-1.7,3.1c-1,1.9-3.3,2.8-5.4,2.1l-3.7-1.4c-2-0.7-4.2,0.3-5,2.3l-2.8,7.3
		c-0.7,2,0.3,4.2,2.3,5l3.6,1.4c2,0.8,3.2,3,2.7,5.2l-1.6,8c-0.4,2.2-2.3,3.7-4.5,3.7l-3.9-0.1c-2.1-0.1-3.9,1.6-4,3.8l-0.3,7.8
		c-0.1,2.1,1.6,3.9,3.8,4l3.9,0.1c2.2,0.1,4,1.8,4.3,4l1.1,8c0.4,2.2-0.9,4.3-3,5l-3.8,1.2c-2.1,0.6-3.2,2.8-2.6,4.9l3.4,11.2
		l21-6.5c-17.8-43.4,3-93.1,46.4-110.9c6.7-2.7,13.7-4.6,20.8-5.6L154,23.5l-11.4,2.6c-2.1,0.5-3.4,2.6-2.9,4.7l0.9,3.9
		c0.4,2.2-0.7,4.3-2.8,5.1l-7.5,3.1c-2,0.9-4.4,0.2-5.6-1.7l-2.1-3.3c-1.1-1.8-3.5-2.4-5.4-1.3l-6.6,4.1c-1.8,1.1-2.4,3.5-1.3,5.4
		l2.1,3.3c1.1,1.9,0.7,4.3-1,5.8l-6.1,5.4c-1.6,1.5-4.1,1.6-5.8,0.2l-3-2.5c-1.7-1.3-4.1-1.1-5.5,0.6l-4.9,6
		c-1.4,1.7-1.1,4.1,0.6,5.5c0,0,0,0,0,0l3,2.5c1.7,1.4,2,3.9,0.9,5.7C89.6,78.5,89.1,79.3,87.8,81.5z"/>
	<path class="st0" d="M168.9,222c2.5,0,3.6-0.1,3.6-0.1c2.2-0.1,4.1,1.5,4.5,3.6l0.6,3.9c0.3,2.1,2.3,3.6,4.5,3.2l7.7-1.2
		c2.1-0.3,3.6-2.3,3.2-4.5l-0.6-3.9c-0.3-2.2,1-4.3,3.1-4.9l7.7-2.6c2.1-0.8,4.4,0.1,5.5,2l1.8,3.4c1,1.9,3.4,2.6,5.3,1.6l6.9-3.7
		c1.9-1,2.6-3.4,1.6-5.3l-1.9-3.5c-1-2-0.4-4.4,1.3-5.7l6.4-5c1.7-1.4,4.2-1.3,5.8,0.1l2.9,2.7c1.6,1.5,4,1.4,5.5-0.2l8-8.5
		l-16.1-14.9c-28.7,37.1-82.1,44-119.2,15.2c-5.7-4.4-10.8-9.5-15.2-15.2l-16.1,15l8,8.5c1.5,1.6,3.9,1.6,5.5,0.2l2.9-2.7
		c1.7-1.5,4.1-1.5,5.8-0.1l6.4,4.9c1.8,1.3,2.3,3.7,1.3,5.7l-1.8,3.5c-1,1.9-0.3,4.2,1.6,5.3l6.9,3.7c1.9,1,4.3,0.3,5.3-1.6l1.8-3.4
		c1.1-1.9,3.4-2.7,5.5-2l7.7,2.6c2.1,0.7,3.4,2.7,3.1,4.9l-0.6,3.9c-0.3,2.1,1.1,4.1,3.2,4.5l7.7,1.2c2.1,0.3,4.1-1.1,4.5-3.2
		l0.6-3.9c0.4-2.2,2.3-3.7,4.5-3.6C165.3,222,166.3,222,168.9,222z"/>
	<path class="st0" d="M250,81.6c-1.3-2.2-1.9-3.1-1.9-3.1c-1.2-1.9-0.8-4.3,0.9-5.7l3-2.5c1.7-1.4,1.9-3.8,0.6-5.5l-4.9-6
		c-1.4-1.7-3.8-1.9-5.5-0.6l-3,2.5c-1.7,1.3-4.2,1.2-5.8-0.2l-6.1-5.3c-1.7-1.4-2.1-3.8-1-5.8l2.1-3.3c1.1-1.8,0.6-4.2-1.3-5.4
		l-6.6-4.1c-1.8-1.1-4.2-0.6-5.4,1.3l-2.1,3.3c-1.2,1.8-3.6,2.6-5.6,1.7l-7.5-3.1c-2.1-0.8-3.2-3-2.8-5.1l0.9-3.9
		c0.5-2.1-0.8-4.2-2.9-4.7l-11.4-2.6l-4.9,21.4c46.5,6.3,79.1,49.1,72.8,95.7c-1,7.1-2.8,14.1-5.6,20.8l21,6.5l3.4-11.2
		c0.6-2.1-0.5-4.2-2.6-4.9l-3.8-1.2c-2.1-0.7-3.4-2.8-3-5l1.1-8c0.3-2.2,2.1-3.9,4.3-4l3.9-0.1c2.1-0.1,3.8-1.9,3.8-4l-0.3-7.8
		c-0.1-2.1-1.9-3.8-4-3.8l-3.9,0.1c-2.2,0-4.1-1.6-4.5-3.7l-1.6-8c-0.5-2.2,0.7-4.3,2.7-5.2l3.6-1.4c2-0.8,3-3,2.3-5l-2.8-7.3
		c-0.8-2-3-3-5-2.3l-3.6,1.4c-2.1,0.7-4.4-0.2-5.4-2.1C251.8,84.7,251.2,83.8,250,81.6z"/>
	<path class="st0" d="M47.2,79.7l-0.1,0.2L47.2,79.7z"/>
	<path class="st0" d="M80.7,35.7L81,36c2.4-1.8,5.1-3.1,7.9-4c21.2-5.9,20.1-13.2,29.1-17.6l-0.3-0.4c-2.2,1.4-4.8,2.2-7.5,2.2
		C85.4,16.5,87.3,31,80.7,35.7z"/>
	<path class="st0" d="M56,63.2l0.5,0.3c5-5.6,9.9-6.6,10.7-6.9c19.7-5.8,26.6-18.9,31.9-22.6l-0.2-0.3c-7.3,5.2-15.9-0.1-30.7,15.7
		c-0.1,0.1-0.5-0.5-0.5-0.5c12-14.4,12.3-24.3,17.8-29.6l-0.3-0.3C50.3,39.9,65.6,51.3,56,63.2z"/>
	<path class="st0" d="M57.5,39.1C24.6,71.7,45,80,39.9,96.2l0.3,0.1c3-6.9,10.6-9.9,10.8-10C65,80,69.3,63.8,74.9,58.8l-0.3-0.3
		c-6.8,7.4-18,3.2-27.2,21.5c0,0.1-0.6-0.3-0.6-0.3c7.4-15.9,3.9-30.3,11-40.3C57.7,39.3,57.6,39.2,57.5,39.1z"/>
	<path class="st0" d="M33.6,139.5h0.5c-0.1-1.9-0.6-9.6,7.1-16.8c15.6-14.5,13-27.3,19.4-37.3l-0.5-0.3c-5,8.5-23.2,17.8-23.9,30.8
		c-0.2,0-0.5,0-0.7-0.1c2.7-18.7-7.2-31.1-1.8-43c-0.2-0.1-0.3-0.2-0.5-0.3C12.3,115.6,29.6,115,33.6,139.5z"/>
	<path class="st0" d="M41.6,180.3l0.5-0.2c-4.3-9.7,2.9-22.9,3.2-23.6c9.5-18.4,6.3-35.1,8.5-40.9l-0.5-0.1
		c-5.1,12.6-19.1,19.5-17,40.7c-0.2,0-0.5,0-0.7,0c-2.2-13.2-17.1-25.8-16.7-40.2h-0.3C9.5,167.1,36,166.8,41.6,180.3z"/>
	<path class="st0" d="M62.9,218.1l0.4-0.3c-5.4-6.5-7.6-15-6-23.3c4.4-25.5-3.8-30.1-4-41.6h-0.4c-0.4,12.9-13.6,27.4-1.6,45.4
		l-0.6,0.4c-13.3-19.3-23.7-14.6-29.9-33.7l0,0c-0.2,0-0.4,0.1-0.5,0.1C29.5,221.3,54.4,204.3,62.9,218.1z"/>
	<path class="st0" d="M114.4,242.6l-0.1-0.5c-17.4,3.5-26.3,0.1-29.4-15.9c-4.4-22.4-19.7-31.1-21.5-40.1l0,0c-0.1,0-0.3,0-0.4,0.1
		l0,0c3.3,15.9-4.5,25.3,14.7,44.3l-0.5,0.4c-18.4-14.6-31.1-9.2-38.4-19.4c-0.1,0.1-0.2,0.2-0.3,0.3
		C61.2,249.8,85.7,251.9,114.4,242.6z"/>
	<path class="st0" d="M71.4,249.1l0.1-0.2c23.4,13.6,47.9-5.4,77.5-6.1c7.4-0.2,29.7,1.2,50.1,24.9l-5.4,1.5
		c-6.7-11.7-17.1-20.2-26.6-22.5c-27-6.7-27.5,18.4-57.4,18.8C87.5,265.9,72.3,250,71.4,249.1z"/>
	<path class="st0" d="M290.2,79.7l0.1,0.2L290.2,79.7z"/>
	<path class="st0" d="M290.2,79.7l0.1,0.2L290.2,79.7z"/>
	<path class="st0" d="M47.2,79.7l-0.1,0.2L47.2,79.7z"/>
	<path class="st0" d="M290.2,79.7l0.1,0.2L290.2,79.7z"/>
	<path class="st0" d="M256.8,35.7l-0.3,0.4c-2.4-1.8-5.1-3.1-7.9-4c-21.2-6-20.1-13.3-29.1-17.6l0.3-0.4c2.2,1.4,4.8,2.2,7.5,2.2
		C252.1,16.5,250.2,31,256.8,35.7z"/>
	<path class="st0" d="M281.4,63.2l-0.5,0.3c-5-5.6-9.9-6.6-10.7-6.9c-19.7-5.8-26.6-18.9-31.9-22.6l0.2-0.3
		c7.3,5.2,15.9-0.1,30.7,15.7c0.1,0.1,0.5-0.5,0.5-0.5c-12-14.5-12.3-24.3-17.8-29.6l0.3-0.3C287.1,39.9,271.8,51.3,281.4,63.2z"/>
	<path class="st0" d="M280,39.1c32.9,32.6,12.4,40.9,17.6,57.2l-0.3,0.1c-3-6.9-10.6-9.9-10.8-10c-13.9-6.4-18.3-22.7-23.9-27.6
		l0.3-0.3c6.8,7.4,18,3.2,27.2,21.5c0,0.1,0.6-0.3,0.6-0.3c-7.4-15.9-3.9-30.3-11-40.3C279.7,39.3,279.9,39.2,280,39.1z"/>
	<path class="st0" d="M303.9,139.5h-0.5c0.1-1.9,0.6-9.6-7.1-16.8c-15.6-14.5-13-27.3-19.4-37.3l0.5-0.3c5,8.5,23.2,17.8,23.9,30.8
		c0.2,0,0.5,0,0.7-0.1c-2.7-18.7,7.2-31.1,1.8-43c0.2-0.1,0.3-0.2,0.5-0.3C325.2,115.6,307.8,115,303.9,139.5z"/>
	<path class="st0" d="M295.8,180.3l-0.5-0.2c4.3-9.7-2.9-22.9-3.2-23.6c-9.5-18.4-6.3-35.1-8.5-40.9l0.5-0.1
		c5.1,12.6,19.1,19.5,17,40.7c0.2,0,0.5,0,0.7,0c2.2-13.2,17.2-25.8,16.7-40.2h0.3C327.9,167.1,301.4,166.8,295.8,180.3z"/>
	<path class="st0" d="M274.6,218.1l-0.4-0.3c5.4-6.5,7.6-15,6-23.3c-4.4-25.5,3.8-30.1,4-41.6h0.4c0.4,12.9,13.6,27.4,1.6,45.4
		l0.6,0.4c13.2-19.3,23.7-14.6,29.9-33.7l0,0c0.2,0,0.4,0.1,0.5,0.1C308,221.3,283,204.3,274.6,218.1z"/>
	<path class="st0" d="M223.1,242.6l0.1-0.5c17.4,3.5,26.3,0.1,29.4-15.9c4.4-22.4,19.7-31.1,21.5-40.1l0,0c0.1,0,0.3,0,0.4,0.1l0,0
		c-3.3,15.9,4.4,25.3-14.7,44.3l0.5,0.4c18.4-14.6,31.1-9.2,38.4-19.4c0.1,0.1,0.2,0.2,0.3,0.3C276.3,249.8,251.8,251.9,223.1,242.6
		z"/>
	<path class="st0" d="M266,249.1l-0.1-0.2c-23.4,13.6-47.9-5.4-77.5-6.1c-7.4-0.2-29.7,1.2-50.1,24.9l5.4,1.5
		c6.8-11.7,17.1-20.2,26.6-22.5c27-6.7,27.5,18.4,57.4,18.8C250,265.9,265.2,250,266,249.1z"/>
	<path class="st0" d="M47.2,79.7l-0.1,0.2L47.2,79.7z"/>
	<path class="st0" d="M47.2,79.7l-0.1,0.2L47.2,79.7z"/>
	<path class="st0" d="M290.2,79.7l0.1,0.2L290.2,79.7z"/>
	<path class="st0" d="M205.2,80.5h-0.4c-10.9,0-21.5,7-26.7,18.8c-2.7,6-3.3,13.7-3.3,21.2s0.6,15.2,3.3,21.2
		c5.2,11.7,15.8,19.8,26.7,19.8h0.4c10.9,0,21.4-8,26.7-19.8c2.7-6,3.3-13.7,3.3-21.2s-0.6-15.2-3.3-21.2
		C226.6,87.5,216.1,80.5,205.2,80.5z M222,120.9c0,7-0.2,13.1-0.2,13.1c-0.4,5.7-0.5,11.5-3.2,15.4c-2.8,4.2-7.6,6.8-12.7,6.8
		l-0.2,0.1h-0.6l-0.2-0.1c-5.1,0-9.8-2.6-12.7-6.8c-2.7-3.9-2.8-9.7-3.2-15.4c0,0-0.2-6-0.2-13v-0.3c0-7,0.2-13.1,0.2-13.1
		c0.4-5.7,0.5-11.5,3.2-15.4c2.8-4.2,7.6-6.8,12.7-6.8l0.2-0.1h0.6l0.2,0.1c5.1,0,9.8,2.5,12.7,6.8c2.7,3.9,2.8,9.7,3.2,15.4
		c0,0,0.2,6,0.2,12.9L222,120.9z"/>
	<path class="st0" d="M213.4,164.7c0,0-2.1,5.6-6.1,9c-2.2,1.9-5.4,2.4-8,2.7l-26.9,1.3h-5.9c0,0-4.5-0.3-4.8-4.4V79
		c0.3-4.2,4.8-4.4,4.8-4.4h5.9V69h-36v5.5h5.9c0,0,4.5,0.3,4.8,4.4v94.4c-0.3,4.2-4.8,4.4-4.8,4.4h-5.9v5.5h36l39,0.1l4.8-17.4v-0.6
		L213.4,164.7z"/>
	<path class="st0" d="M128.8,90.8c0.2-3.5,4-3.7,4-3.7h5v-4.6h-30v4.6h5c0,0,3.8,0.2,4,3.7v60.3c-0.2,3.5-4,3.7-4,3.7h-5v4.6h30
		v-4.6h-5c0,0-3.8-0.2-4-3.7V90.8z"/>
</g>
</svg>
